<?xml version="1.0" standalone="no"?>
<!DOCTYPE svg PUBLIC "-//W3C//DTD SVG 20010904//EN"
 "http://www.w3.org/TR/2001/REC-SVG-20010904/DTD/svg10.dtd">
<svg version="1.0" xmlns="http://www.w3.org/2000/svg"
 width="1000.000000pt" height="1000.000000pt" viewBox="0 0 1000.000000 1000.000000"
 preserveAspectRatio="xMidYMid meet">
<metadata>
Created by potrace 1.11, written by Peter Selinger 2001-2013
</metadata>
<g transform="translate(0.000000,1000.000000) scale(0.100000,-0.100000)"
fill="#000000" stroke="none">
<path d="M3090 9403 c0 -5 -25 -9 -56 -8 -30 0 -58 -3 -60 -7 -3 -4 -11 -5
-19 -1 -9 3 -22 0 -30 -7 -10 -8 -15 -9 -15 -1 0 7 -8 8 -22 3 -13 -5 -30 -8
-38 -7 -8 1 -19 -1 -25 -4 -5 -3 -21 -7 -35 -7 -14 -1 -25 -3 -25 -4 0 -1 -7
-3 -15 -5 -45 -10 -69 -15 -105 -25 -22 -6 -50 -13 -61 -15 -12 -3 -38 -12
-58 -20 -20 -8 -39 -16 -43 -16 -15 -2 -58 -20 -165 -68 -26 -11 -52 -21 -57
-21 -5 0 -12 -7 -15 -16 -3 -8 -10 -13 -15 -10 -5 3 -20 -3 -33 -14 -14 -11
-28 -16 -32 -13 -3 3 -6 1 -6 -6 0 -8 -7 -11 -15 -7 -9 3 -15 0 -15 -10 0 -8
-4 -12 -10 -9 -5 3 -10 1 -10 -6 0 -7 -3 -10 -6 -6 -4 3 -12 1 -20 -6 -32 -29
-44 -37 -44 -32 0 6 -16 -6 -51 -37 -10 -10 -19 -16 -19 -13 0 5 -44 -32 -81
-67 -10 -9 -20 -14 -23 -11 -3 3 -8 -2 -12 -11 -3 -9 -13 -16 -21 -16 -8 0
-11 -4 -8 -10 3 -5 2 -10 -3 -10 -13 0 -82 -69 -82 -82 0 -5 -3 -7 -7 -5 -5 2
-20 -9 -35 -24 -15 -16 -25 -29 -23 -29 3 0 -9 -13 -27 -30 -17 -16 -28 -30
-25 -30 3 0 -9 -15 -25 -32 -30 -32 -56 -67 -99 -135 -12 -18 -25 -33 -31 -33
-5 0 -7 -4 -3 -9 3 -5 -1 -15 -8 -23 -14 -14 -29 -39 -68 -118 -13 -25 -27
-46 -31 -48 -4 -2 -8 -12 -8 -23 0 -10 -5 -19 -12 -19 -6 0 -9 -3 -5 -6 3 -4
-1 -21 -10 -38 -10 -17 -18 -33 -18 -36 -1 -3 -5 -13 -9 -22 -4 -9 -9 -22 -10
-30 -1 -7 -7 -22 -13 -33 -11 -20 -26 -79 -23 -91 1 -4 -3 -10 -9 -14 -7 -3
-13 -21 -14 -38 -1 -18 -5 -32 -9 -32 -5 0 -8 -16 -8 -35 0 -19 -4 -35 -9 -35
-5 0 -8 -11 -6 -25 1 -14 -1 -25 -5 -25 -4 0 -7 -6 -7 -12 1 -11 -2 -40 -17
-143 -1 -5 -5 -16 -9 -22 -5 -7 -5 -13 0 -13 4 0 8 -11 8 -25 0 -14 -3 -25 -6
-25 -8 0 -6 -372 3 -385 3 -5 9 -37 12 -70 4 -33 10 -77 15 -97 5 -20 6 -39 3
-42 -3 -4 -1 -6 4 -6 6 0 11 -16 12 -35 2 -20 8 -48 14 -63 6 -15 12 -29 12
-32 1 -3 5 -11 10 -19 6 -10 6 -12 -3 -6 -9 5 -10 3 -2 -11 11 -22 23 -53 27
-74 2 -8 8 -23 13 -35 17 -33 34 -79 33 -87 -1 -5 3 -8 9 -8 5 0 7 -4 4 -10
-3 -5 -2 -10 4 -10 5 0 8 -8 7 -17 -2 -10 2 -23 8 -30 28 -31 36 -43 34 -46
-3 -4 33 -78 42 -87 3 -3 11 -15 18 -27 6 -13 18 -33 25 -45 6 -13 19 -30 27
-38 8 -8 16 -22 18 -30 2 -8 7 -17 11 -20 4 -3 20 -23 36 -45 16 -22 36 -47
45 -56 8 -9 29 -34 46 -55 50 -62 92 -103 98 -96 3 3 6 -1 6 -9 0 -8 16 -25
34 -39 19 -14 32 -28 29 -32 -2 -5 0 -8 5 -8 5 0 21 -11 36 -25 14 -13 26 -22
26 -19 0 2 14 -9 30 -25 17 -16 49 -42 73 -57 23 -16 44 -32 45 -37 2 -4 8 -5
13 -1 5 3 9 0 9 -5 0 -6 7 -11 15 -11 8 0 15 -4 15 -10 0 -5 7 -10 15 -10 8 0
15 -4 15 -10 0 -5 6 -10 13 -10 7 0 23 -9 35 -20 12 -12 22 -18 22 -15 0 7
104 -48 108 -57 2 -5 9 -8 16 -8 7 0 26 -6 42 -14 31 -16 83 -37 99 -42 6 -1
43 -14 84 -29 41 -14 88 -28 105 -30 17 -2 32 -9 34 -14 2 -5 10 -7 18 -4 8 3
20 1 27 -4 6 -5 22 -8 35 -7 12 0 22 -2 22 -6 0 -4 15 -7 33 -8 17 -1 46 -4
62 -7 48 -9 136 -17 187 -19 27 0 48 -5 48 -11 0 -7 3 -7 8 0 9 13 42 16 42 3
0 -5 5 -6 12 -2 7 4 24 8 38 8 14 0 31 -4 38 -8 7 -4 12 -3 12 1 0 5 26 9 58
10 31 1 71 3 87 4 21 1 56 -15 120 -56 313 -199 802 -378 1496 -550 370 -91
474 -121 694 -197 307 -106 522 -217 750 -388 96 -73 255 -232 255 -256 0 -3
7 -12 15 -21 8 -8 13 -18 11 -21 -5 -9 -109 -7 -124 2 -6 3 -13 2 -17 -4 -4
-6 -12 -7 -18 -3 -16 10 -37 13 -37 5 0 -4 -19 -8 -42 -8 -74 -2 -186 -18
-218 -31 -8 -3 -22 -7 -30 -7 -42 -5 -100 -19 -100 -26 0 -3 -6 -7 -12 -8 -48
-6 -60 -9 -66 -18 -4 -5 -15 -10 -24 -12 -10 -1 -33 -9 -53 -17 -19 -9 -37
-14 -41 -13 -3 2 -10 -5 -15 -14 -6 -10 -16 -18 -24 -18 -13 0 -134 -66 -145
-79 -12 -14 -70 -51 -80 -51 -6 0 -8 -4 -5 -10 3 -5 1 -10 -4 -10 -16 0 -45
-26 -140 -121 -86 -86 -151 -157 -151 -165 0 -2 -20 -33 -45 -70 -25 -36 -45
-70 -45 -75 0 -6 -6 -7 -12 -3 -7 4 -10 4 -6 -1 4 -4 0 -22 -9 -39 -10 -17
-16 -34 -15 -38 1 -5 -3 -8 -8 -8 -6 0 -10 -9 -10 -20 0 -11 -4 -20 -10 -20
-5 0 -10 -8 -10 -18 0 -10 -7 -28 -16 -40 -8 -12 -12 -22 -8 -22 3 0 1 -7 -6
-15 -7 -8 -10 -15 -6 -15 4 0 0 -14 -9 -30 -9 -17 -13 -30 -9 -30 4 0 1 -6 -5
-14 -6 -8 -11 -18 -10 -22 1 -5 0 -12 -1 -16 -1 -5 -4 -12 -5 -18 -1 -5 -3
-11 -5 -12 -4 -6 -21 -101 -23 -130 -1 -10 -4 -18 -7 -18 -7 0 -9 -32 -10
-210 -2 -164 2 -209 25 -323 13 -64 16 -79 25 -102 5 -14 6 -25 3 -25 -4 0 -2
-5 5 -12 7 -7 12 -21 12 -33 0 -12 5 -26 12 -33 7 -7 8 -12 4 -12 -5 0 -3 -7
4 -15 14 -17 21 -17 -140 -18 -106 0 -325 10 -390 18 -19 2 -57 7 -85 11 -27
4 -61 8 -75 9 -56 7 -178 31 -295 59 -181 44 -415 133 -585 223 -157 84 -137
72 -287 170 -171 112 -363 283 -498 444 l-71 85 -65 -55 c-35 -30 -82 -71
-103 -92 l-39 -37 68 -87 c328 -420 882 -754 1517 -914 40 -10 89 -21 108 -25
19 -3 46 -8 60 -11 53 -11 208 -35 260 -40 30 -4 71 -9 90 -12 19 -3 179 -7
355 -8 l319 -3 16 -23 c8 -13 18 -25 23 -27 4 -2 7 -10 7 -18 0 -8 5 -14 12
-14 6 0 9 -3 5 -6 -3 -3 12 -24 34 -47 21 -23 39 -48 39 -56 0 -8 2 -12 5 -9
3 3 40 -29 83 -71 42 -42 106 -99 142 -126 36 -28 67 -53 68 -57 2 -5 10 -8
18 -8 8 0 14 -3 14 -8 0 -4 18 -18 40 -32 22 -14 40 -28 40 -32 0 -5 5 -8 11
-8 6 0 29 -13 52 -29 97 -66 279 -156 342 -168 10 -2 23 -9 27 -16 4 -6 8 -9
8 -5 0 4 18 1 40 -7 22 -8 40 -11 40 -8 0 4 5 2 11 -4 6 -6 18 -9 25 -6 8 3
14 1 14 -5 0 -6 11 -9 25 -7 14 1 28 -1 30 -6 3 -4 13 -8 23 -7 9 0 44 -4 77
-8 33 -4 79 -8 103 -8 23 0 42 -4 42 -9 0 -4 5 -5 12 -1 17 11 58 11 58 1 0
-4 6 -5 12 -1 19 12 48 12 48 0 0 -7 3 -8 8 -1 4 6 21 10 37 10 17 0 35 2 40
4 6 3 26 6 45 7 19 0 43 4 53 8 39 14 47 15 47 3 0 -9 2 -9 8 0 4 7 27 15 50
19 23 4 42 10 42 13 0 4 8 7 18 8 27 2 55 10 98 29 21 9 44 18 49 19 30 6 55
18 55 27 0 5 4 7 9 3 5 -3 12 -1 16 5 4 6 11 8 16 5 5 -4 9 -1 9 5 0 6 4 9 9
6 5 -4 11 -2 13 3 1 5 10 11 18 13 8 2 19 6 25 11 5 4 52 35 102 69 51 34 93
65 93 70 0 4 5 8 10 8 6 0 24 13 40 30 16 16 34 30 39 30 5 0 13 9 16 20 4 11
9 19 13 17 4 -2 15 4 24 15 10 10 15 18 10 18 -4 0 6 9 21 19 16 10 28 22 27
26 -1 3 16 26 39 51 22 24 37 44 35 44 -3 0 6 14 20 31 14 17 23 36 20 41 -4
6 -3 8 3 5 5 -3 20 14 33 39 14 24 28 44 32 44 5 0 7 3 7 8 -3 20 2 32 13 26
6 -4 8 -3 5 3 -4 6 2 27 13 48 11 21 17 42 14 46 -3 5 -1 9 4 9 5 0 15 15 22
33 6 17 16 40 21 50 5 10 7 22 4 27 -4 6 -1 10 4 10 6 0 10 3 10 8 -1 4 0 9 1
12 1 3 3 12 5 20 2 8 7 26 10 40 4 14 7 31 7 38 1 6 5 12 10 12 5 0 7 4 4 8
-3 4 -1 26 4 48 5 21 12 59 15 84 11 67 13 352 4 376 -4 13 -3 26 4 34 9 10 9
11 -2 5 -11 -6 -13 -3 -9 13 4 12 3 22 -2 22 -4 0 -6 11 -5 25 2 14 0 25 -4
25 -4 0 -7 10 -8 23 -1 36 -11 78 -22 91 -6 7 -8 16 -4 19 3 4 2 17 -4 30 -14
28 -26 59 -27 72 -1 6 -10 30 -21 55 -11 25 -18 46 -17 48 2 1 -4 10 -13 18
-8 9 -15 24 -15 35 0 10 -4 19 -9 19 -5 0 -15 16 -22 35 -7 19 -17 35 -21 35
-4 0 -8 9 -8 21 0 11 -4 18 -9 15 -5 -3 -14 8 -21 24 -7 17 -17 30 -22 30 -5
0 -7 4 -4 9 3 5 -1 11 -9 15 -8 3 -15 10 -15 16 0 10 -27 44 -68 86 -13 13
-21 24 -18 24 3 0 -23 28 -57 63 -34 34 -65 61 -69 59 -5 -2 -8 1 -8 6 0 29
-365 284 -505 352 -38 19 -72 35 -75 36 -5 1 -50 19 -80 31 -8 3 -19 5 -23 4
-4 -1 -15 16 -23 36 -232 568 -774 911 -1869 1181 -88 22 -221 54 -295 71
-263 62 -595 164 -815 251 -167 66 -303 132 -285 138 8 3 26 9 40 15 14 6 30
11 35 12 6 0 24 7 40 15 17 7 33 13 38 12 4 -1 7 3 7 10 0 6 3 8 7 5 3 -4 12
-2 20 4 7 6 13 8 13 5 0 -4 7 0 16 9 9 9 22 14 29 11 8 -3 16 2 19 10 3 9 10
12 16 9 5 -3 10 -1 10 6 0 7 3 10 6 6 3 -3 15 3 27 13 11 11 23 17 27 15 4 -3
13 2 20 10 7 8 16 12 21 9 5 -3 9 -1 9 5 0 15 54 38 71 30 7 -3 26 -12 42 -18
15 -6 37 -15 50 -21 12 -5 31 -11 42 -12 11 -2 22 -6 25 -10 3 -4 17 -8 30
-10 14 -2 31 -7 38 -11 6 -5 12 -6 12 -3 0 2 15 0 33 -5 38 -11 87 -19 142
-24 22 -1 40 -4 40 -5 0 -2 27 -4 61 -5 33 -1 66 -5 72 -9 7 -4 12 -4 12 1 0
4 37 8 83 7 45 0 87 2 92 5 6 3 19 6 30 7 20 1 86 11 135 20 14 3 31 6 38 6 6
1 12 5 12 9 0 5 7 6 15 3 8 -4 15 -2 15 3 0 5 10 9 23 8 12 -1 35 6 51 16 16
9 35 15 42 12 8 -3 14 0 14 6 0 6 3 10 8 10 4 -1 10 0 15 1 4 1 10 3 15 5 4 1
21 8 37 15 17 7 33 13 38 12 4 -1 7 3 7 8 0 6 7 10 15 10 8 0 31 12 52 26 21
14 52 32 70 41 18 8 33 19 33 24 0 5 9 9 21 9 11 0 18 4 15 9 -3 4 6 13 19 19
27 12 46 28 105 85 21 20 44 37 50 37 6 0 8 5 5 10 -3 6 -2 10 4 10 9 0 71 57
71 66 0 3 12 17 26 32 31 33 144 187 144 197 0 4 9 18 20 32 11 14 17 29 14
34 -3 5 -1 9 5 9 10 0 27 38 23 53 -1 4 2 7 7 7 10 0 27 39 23 53 -1 4 5 10
14 14 13 5 13 7 2 14 -10 7 -10 9 0 9 6 0 12 6 12 14 0 8 5 27 12 43 6 15 12
31 13 36 2 4 4 9 5 12 1 3 4 10 5 15 1 6 4 11 5 13 3 2 6 20 14 67 2 14 5 26
6 28 2 1 3 10 4 20 1 9 5 23 9 30 5 6 6 16 2 21 -3 5 -1 12 3 15 5 3 8 15 7
28 -1 13 2 33 6 46 6 16 6 21 -2 16 -8 -4 -8 -1 -1 12 11 23 11 274 -1 292 -5
7 -4 12 3 12 6 0 8 5 3 13 -8 13 -8 12 -16 80 -3 26 -9 53 -14 60 -9 15 79
-48 177 -126 41 -33 147 -133 236 -222 l161 -161 27 32 c14 17 55 64 91 104
36 40 65 78 65 85 0 7 -64 77 -142 157 -124 125 -178 175 -309 283 -88 72
-313 218 -432 280 -23 12 -54 42 -75 73 -21 29 -45 63 -55 75 -10 12 -26 34
-35 50 -9 15 -23 27 -31 27 -8 0 -11 3 -8 6 3 4 -8 22 -26 40 -18 18 -44 47
-59 64 -16 17 -28 28 -28 25 0 -3 -15 10 -34 30 -19 19 -37 35 -40 35 -5 0
-26 16 -60 45 -29 25 -105 75 -115 75 -6 0 -11 4 -11 9 0 8 -21 17 -44 19 -5
0 -12 5 -15 10 -7 11 -114 62 -130 62 -6 0 -11 5 -11 11 0 5 -4 8 -8 5 -5 -3
-20 1 -33 8 -30 15 -80 30 -93 27 -4 -1 -14 3 -20 9 -7 5 -16 7 -19 3 -4 -3
-7 -2 -7 3 0 6 -10 11 -22 12 -13 0 -34 3 -48 6 -22 5 -80 14 -120 20 -8 1
-21 5 -27 9 -8 5 -13 3 -13 -5 0 -8 -3 -9 -8 -3 -4 7 -54 12 -119 12 -117 2
-148 10 -158 42 -3 11 -15 23 -26 26 -10 4 -16 11 -13 17 3 5 -3 16 -15 24
-12 9 -19 20 -16 25 4 5 -1 9 -9 9 -8 0 -18 9 -21 20 -3 11 -11 20 -16 20 -5
0 -18 9 -29 20 -11 11 -17 20 -12 20 4 0 -6 11 -22 25 -16 14 -33 25 -38 25
-4 0 -8 7 -8 15 0 8 -7 15 -15 15 -8 0 -15 4 -15 10 0 5 -19 24 -42 41 -24 17
-42 35 -40 41 1 5 -1 7 -6 4 -5 -3 -23 8 -40 24 -18 16 -32 27 -32 24 0 -3
-10 4 -22 16 -12 11 -26 20 -30 20 -5 0 -18 9 -30 20 -12 11 -28 20 -35 20 -7
0 -13 5 -13 10 0 6 -5 10 -10 10 -6 0 -28 11 -49 24 -21 14 -41 22 -45 19 -3
-3 -8 2 -12 11 -3 9 -11 16 -16 16 -11 0 -80 31 -88 39 -3 4 -9 7 -15 8 -26 5
-81 29 -87 38 -4 6 -8 6 -8 1 0 -5 -7 -3 -15 4 -8 7 -15 9 -15 5 0 -4 -6 -3
-12 2 -12 9 -47 21 -86 29 -8 1 -21 6 -30 10 -30 13 -73 23 -157 39 -11 2 -20
4 -20 6 0 1 -9 3 -20 4 -11 2 -40 6 -65 10 -25 4 -64 8 -87 9 -24 0 -43 4 -43
8 0 4 -7 5 -15 2 -8 -4 -23 -3 -32 1 -28 13 -43 14 -48 5 -3 -5 -15 -6 -28 -3
-23 5 -58 5 -92 -1 -11 -2 -26 1 -32 7 -8 5 -13 5 -13 0z"/>
<path d="M1757 4854 c-1 -1 -24 -5 -52 -7 -27 -3 -50 -6 -50 -7 0 -1 -11 -3
-24 -6 -35 -6 -108 -32 -142 -49 -16 -9 -29 -13 -29 -10 0 3 -6 1 -12 -5 -7
-6 -26 -20 -43 -30 -16 -11 -39 -25 -49 -32 -39 -26 -127 -117 -160 -166 -19
-28 -38 -48 -42 -44 -5 4 -6 3 -2 -1 3 -5 -5 -31 -18 -57 -29 -59 -55 -130
-47 -130 3 0 1 -6 -4 -12 -10 -13 -11 -19 -15 -73 -1 -14 -7 -25 -12 -25 -6 0
-4 -5 4 -10 12 -8 12 -10 1 -10 -10 0 -11 -3 -2 -13 6 -8 8 -17 4 -20 -8 -8
-11 -97 -3 -97 3 0 5 -23 5 -50 0 -27 4 -50 8 -50 5 0 6 -4 3 -8 -3 -5 1 -19
8 -33 7 -13 11 -30 8 -37 -2 -6 1 -12 7 -12 6 0 10 -3 9 -7 -3 -15 14 -63 23
-63 5 0 8 -3 7 -7 -4 -14 13 -53 23 -53 5 0 9 -7 9 -15 0 -8 5 -15 10 -15 6 0
10 -4 10 -10 0 -9 19 -35 48 -65 6 -8 12 -19 12 -26 0 -7 3 -10 6 -6 4 3 20
-9 38 -27 17 -18 39 -35 49 -39 10 -4 15 -11 12 -17 -3 -5 -3 -10 2 -11 30 -3
48 -10 55 -22 4 -8 19 -18 33 -21 14 -4 25 -11 25 -16 0 -6 6 -10 14 -10 8 0
27 -5 43 -12 15 -7 33 -12 38 -13 6 0 20 -6 31 -13 12 -6 24 -9 27 -5 3 3 14
2 24 -2 27 -12 50 -14 143 -15 94 -1 163 5 179 15 6 3 21 8 32 10 31 6 112 37
123 47 6 4 18 8 28 8 10 0 21 7 24 15 4 8 12 15 20 15 8 0 14 5 14 10 0 6 7
10 15 10 8 0 15 5 15 10 0 6 5 10 10 10 6 0 25 16 44 35 18 19 36 31 40 28 3
-4 6 0 6 8 0 8 9 21 20 29 11 8 20 20 20 28 0 7 6 15 14 18 8 3 22 21 31 40 9
19 20 34 25 34 6 0 9 3 8 8 -1 4 6 24 15 46 9 21 17 42 17 47 0 5 4 9 8 9 7 0
11 16 14 58 1 6 5 12 9 12 4 0 6 9 4 20 -2 11 -1 20 3 20 8 0 9 10 14 133 2
48 1 87 -2 87 -3 0 -6 21 -7 45 -1 25 -7 53 -15 62 -11 14 -11 16 2 8 12 -7
13 -6 3 7 -7 8 -10 18 -6 21 3 4 1 7 -5 7 -6 0 -9 6 -6 14 3 8 1 17 -5 21 -6
3 -11 14 -11 24 0 9 -6 23 -12 30 -7 6 -13 15 -13 19 -2 20 -18 52 -26 52 -5
0 -9 6 -9 13 0 28 -133 168 -207 218 -29 19 -50 39 -46 44 5 4 3 6 -2 2 -6 -3
-26 2 -45 10 -19 9 -38 15 -42 15 -5 -1 -8 3 -8 9 0 6 -7 9 -15 5 -8 -3 -15
-1 -15 5 0 6 -4 8 -9 4 -5 -3 -12 -1 -16 5 -4 6 -11 8 -16 4 -5 -3 -16 0 -24
6 -8 7 -15 9 -15 5 0 -4 -8 -1 -17 6 -15 12 -16 12 -8 -1 7 -12 6 -13 -6 -4
-8 6 -34 12 -59 13 -80 6 -121 7 -123 5z"/>
</g>
</svg>
